# xmcd
# 
# Track frame offsets:
#     150
#     9792
#     20058
#     38951
#     52300
#     64369
#     78240
#     91765
#     112955
#     138074
#     149855
#     163315
# 
# Disc length: 2471
# 
# Revision: 2
# Processed by: cddbd v1.5.2PL0 Copyright (c) Steve Scherf et al.
# Submitted via: fre:ac v1.0.31
# 
DISCID=a409a50c
DTITLE=Dolly Parton - Singer Songwriter and Legendary Performer Dolly Parton
DYEAR=2007
DGENRE=Country
TTITLE0=Baby I’m Burnin’ (Live)
TTITLE1=Two Doors Down (Live)
TTITLE2=The Grass Is Blue (Live)
TTITLE3=Jolene (Live)
TTITLE4=9 to 5 (Live)
TTITLE5=Hello God (Live)
TTITLE6=Coat of Many Colors
TTITLE7=These Old Bones
TTITLE8=Little Sparrow
TTITLE9=God’s Coloring Book
TTITLE10=I Will Always Love You
TTITLE11=Travelin’ Thru
EXTD=Free with The Mail On Sunday 25-02-07
EXTT0=
EXTT1=
EXTT2=
EXTT3=
EXTT4=
EXTT5=
EXTT6=
EXTT7=
EXTT8=
EXTT9=
EXTT10=
EXTT11=
PLAYORDER=
